<?xml version="1.0" encoding="UTF-8"?>
<svg id="Layer_2" data-name="Layer 2" xmlns="http://www.w3.org/2000/svg" viewBox="0 0 232.51 130.86">
  <defs>
    <style>
      .cls-1 {
        fill: #fff;
      }
    </style>
  </defs>
  <g id="Layer_1-2" data-name="Layer 1">
    <g>
      <path class="cls-1" d="M116.21,92.66c-2.27,0-4.12-1.85-4.12-4.12v-46.21c0-2.27,1.85-4.12,4.12-4.12s4.13,1.85,4.13,4.12v46.21c0,2.27-1.85,4.12-4.13,4.12Z"/>
      <path class="cls-1" d="M79.76,102.46c-2.27,0-4.12-1.85-4.12-4.12V32.52c0-2.27,1.85-4.12,4.12-4.12s4.12,1.85,4.12,4.12v65.81c0,2.27-1.85,4.12-4.12,4.12Z"/>
      <path class="cls-1" d="M98.74,94.23c-2.27,0-4.13-1.85-4.13-4.12v-49.34c0-2.27,1.85-4.13,4.13-4.13s4.12,1.85,4.12,4.13v49.34c0,2.27-1.85,4.12-4.12,4.12Z"/>
      <path class="cls-1" d="M60.65,121.04c-2.27,0-4.12-1.85-4.12-4.13V13.94c0-2.27,1.85-4.12,4.12-4.12s4.12,1.85,4.12,4.12v102.97c0,2.27-1.85,4.13-4.12,4.13Z"/>
      <path class="cls-1" d="M41.68,130.23c-2.27,0-4.12-1.85-4.12-4.12V4.76c0-2.27,1.85-4.13,4.12-4.13s4.13,1.85,4.13,4.13v121.35c0,2.27-1.85,4.12-4.13,4.12Z"/>
      <path class="cls-1" d="M22.71,130.86c-2.27,0-4.12-1.85-4.12-4.12V4.12c0-2.27,1.85-4.12,4.12-4.12s4.12,1.85,4.12,4.12v122.61c0,2.27-1.85,4.12-4.12,4.12Z"/>
      <path class="cls-1" d="M4.12,102.46c-2.27,0-4.12-1.85-4.12-4.12V32.52c0-2.27,1.85-4.12,4.12-4.12s4.12,1.85,4.12,4.12v65.81c0,2.27-1.85,4.12-4.12,4.12Z"/>
      <path class="cls-1" d="M152.74,102.46c-2.27,0-4.12-1.85-4.12-4.12V32.52c0-2.27,1.85-4.12,4.12-4.12s4.12,1.85,4.12,4.12v65.81c0,2.27-1.85,4.12-4.12,4.12Z"/>
      <path class="cls-1" d="M133.77,94.23c-2.27,0-4.12-1.85-4.12-4.12v-49.34c0-2.27,1.85-4.13,4.12-4.13s4.13,1.85,4.13,4.13v49.34c0,2.27-1.85,4.12-4.13,4.12Z"/>
      <path class="cls-1" d="M171.86,121.04c-2.27,0-4.12-1.85-4.12-4.13V13.94c0-2.27,1.85-4.12,4.12-4.12s4.12,1.85,4.12,4.12v102.97c0,2.27-1.85,4.13-4.12,4.13Z"/>
      <path class="cls-1" d="M190.83,130.23c-2.27,0-4.13-1.85-4.13-4.12V4.76c0-2.27,1.85-4.13,4.13-4.13s4.12,1.85,4.12,4.13v121.35c0,2.27-1.85,4.12-4.12,4.12Z"/>
      <path class="cls-1" d="M209.8,130.86c-2.27,0-4.13-1.85-4.13-4.12V4.12c0-2.27,1.85-4.12,4.13-4.12s4.12,1.85,4.12,4.12v122.61c0,2.27-1.85,4.12-4.12,4.12Z"/>
      <path class="cls-1" d="M228.38,102.46c-2.27,0-4.12-1.85-4.12-4.12V32.52c0-2.27,1.85-4.12,4.12-4.12s4.13,1.85,4.13,4.12v65.81c0,2.27-1.85,4.12-4.13,4.12Z"/>
    </g>
  </g>
</svg>