<svg width="77" height="32" viewBox="0 0 77 32" fill="none" xmlns="http://www.w3.org/2000/svg">
<rect x="1" y="1" width="75" height="30" rx="15" fill="#E9DAFA" stroke="white" stroke-width="2"/>
<path d="M20.1624 19.384H20.9784V21H17.4584C15.6024 21 14.4504 19.496 13.9704 17.56C13.8104 16.872 13.7304 16.136 13.7304 15.4C13.7304 14.68 13.8104 13.944 13.9704 13.256C14.4504 11.32 15.6024 9.8 17.4584 9.8H20.9784V11.416H17.4584C16.4984 11.416 15.8424 12.392 15.5384 13.64C15.4104 14.184 15.3304 14.792 15.3304 15.4C15.3304 16.024 15.4104 16.632 15.5384 17.176C15.8424 18.424 16.4984 19.384 17.4584 19.384H20.1624ZM23.586 13.688V14.904H27.97V13.688C27.97 13.064 27.714 12.488 27.314 12.088C26.93 11.672 26.386 11.416 25.778 11.416C25.186 11.416 24.642 11.672 24.242 12.088C23.842 12.488 23.586 13.064 23.586 13.688ZM21.986 21V13.688C21.986 12.632 22.402 11.656 23.09 10.952C23.778 10.248 24.738 9.8 25.778 9.8C26.834 9.8 27.778 10.248 28.482 10.952C29.154 11.656 29.586 12.632 29.586 13.688V21H27.97V16.52H23.586V21H21.986ZM32.8238 13.368V21H31.2238V9.8H32.4557L37.3678 17.448V9.8H38.9838V21H37.7358L32.8238 13.368ZM46.803 19.384H47.619V21H44.099C42.243 21 41.091 19.496 40.611 17.56C40.451 16.872 40.371 16.136 40.371 15.4C40.371 14.68 40.451 13.944 40.611 13.256C41.091 11.32 42.243 9.8 44.099 9.8H47.619V11.416H44.099C43.139 11.416 42.483 12.392 42.179 13.64C42.051 14.184 41.971 14.792 41.971 15.4C41.971 16.024 42.051 16.632 42.179 17.176C42.483 18.424 43.139 19.384 44.099 19.384H46.803ZM48.2486 17.16V13.656C48.2486 12.6 48.6806 11.64 49.3686 10.936C50.0726 10.232 51.0326 9.8 52.0886 9.8H55.9286V11.416H52.0886C51.4806 11.416 50.9206 11.672 50.5046 12.072C50.1046 12.488 49.8486 13.048 49.8486 13.656V14.6H54.6806V16.216H49.8486V17.16C49.8486 17.768 50.1046 18.328 50.5046 18.728C50.9206 19.144 51.4806 19.384 52.0886 19.384H55.9286V21H52.0886C51.0326 21 50.0726 20.568 49.3686 19.88C48.6806 19.176 48.2486 18.216 48.2486 17.16ZM57.1925 21V9.8H58.7925V19.384H63.7365V21H57.1925Z" fill="black"/>
</svg>
