<svg width="75" height="75" viewBox="0 0 75 75" fill="none" xmlns="http://www.w3.org/2000/svg">
<rect width="75" height="75" rx="25" fill="#B3A5C4"/>
<rect x="1.19995" y="1.80005" width="72" height="72" rx="25" fill="#312C38"/>
<path d="M22.9228 47.812H21.2428V53.788H22.9228C23.3788 53.788 23.7988 53.608 24.0988 53.296C24.4108 52.996 24.5908 52.576 24.5908 52.12V49.492C24.5908 49.036 24.4108 48.616 24.0988 48.304C23.7988 48.004 23.3788 47.812 22.9228 47.812ZM20.0428 46.6H22.9228C23.7148 46.6 24.4348 46.924 24.9628 47.452C25.4788 47.98 25.8028 48.7 25.8028 49.492V52.12C25.8028 52.912 25.4788 53.632 24.9628 54.16C24.4348 54.676 23.7148 55 22.9228 55H20.0428V46.6ZM26.9334 55V46.6H28.1334V55H26.9334ZM30.5567 49.516V50.428H33.8447V49.516C33.8447 49.048 33.6527 48.616 33.3527 48.316C33.0647 48.004 32.6567 47.812 32.2007 47.812C31.7567 47.812 31.3487 48.004 31.0487 48.316C30.7487 48.616 30.5567 49.048 30.5567 49.516ZM29.3567 55V49.516C29.3567 48.724 29.6687 47.992 30.1847 47.464C30.7007 46.936 31.4207 46.6 32.2007 46.6C32.9927 46.6 33.7007 46.936 34.2287 47.464C34.7327 47.992 35.0567 48.724 35.0567 49.516V55H33.8447V51.64H30.5567V55H29.3567ZM37.485 47.824V50.86H39.381C39.801 50.86 40.173 50.692 40.449 50.416C40.725 50.14 40.893 49.756 40.893 49.336C40.893 48.916 40.725 48.544 40.449 48.268C40.173 47.992 39.801 47.824 39.381 47.824H37.485ZM37.485 52.072V55.012H36.285V46.612H39.381C40.125 46.612 40.809 46.912 41.313 47.404C41.805 47.908 42.105 48.592 42.105 49.336C42.105 50.092 41.805 50.776 41.313 51.268C40.809 51.76 40.125 52.072 39.381 52.072H37.485ZM42.7607 52.12V49.492C42.7607 48.7 43.0847 47.98 43.6007 47.452C44.1287 46.924 44.8487 46.6 45.6407 46.6H48.5207V47.812H45.6407C45.1847 47.812 44.7647 48.004 44.4527 48.304C44.1527 48.616 43.9607 49.036 43.9607 49.492V50.2H47.5847V51.412H43.9607V52.12C43.9607 52.576 44.1527 52.996 44.4527 53.296C44.7647 53.608 45.1847 53.788 45.6407 53.788H48.5207V55H45.6407C44.8487 55 44.1287 54.676 43.6007 54.16C43.0847 53.632 42.7607 52.912 42.7607 52.12ZM50.6686 47.824V50.86H52.5646C52.9846 50.86 53.3566 50.692 53.6326 50.416C53.9086 50.14 54.0766 49.756 54.0766 49.336C54.0766 48.916 53.9086 48.544 53.6326 48.268C53.3566 47.992 52.9846 47.824 52.5646 47.824H50.6686ZM50.6686 52.072V55.012H49.4686V46.612H52.5646C53.3086 46.612 53.9926 46.912 54.4966 47.404C54.9886 47.908 55.2886 48.592 55.2886 49.336C55.2886 50.092 54.9886 50.776 54.4966 51.268C54.1126 51.64 53.6326 51.916 53.0926 52.024L55.2886 55H53.8006L51.6286 52.072H50.6686ZM22.6804 64.788H23.2924V66H20.6524C19.2604 66 18.3964 64.872 18.0364 63.42C17.9164 62.904 17.8564 62.352 17.8564 61.8C17.8564 61.26 17.9164 60.708 18.0364 60.192C18.3964 58.74 19.2604 57.6 20.6524 57.6H23.2924V58.812H20.6524C19.9324 58.812 19.4404 59.544 19.2124 60.48C19.1164 60.888 19.0564 61.344 19.0564 61.8C19.0564 62.268 19.1164 62.724 19.2124 63.132C19.4404 64.068 19.9324 64.788 20.6524 64.788H22.6804ZM25.3561 62.412V66H24.1561V62.412V61.2V57.6H25.3561V61.2H28.6441V57.6H29.8561V66H28.6441V62.412H25.3561ZM32.2793 60.516V61.428H35.5673V60.516C35.5673 60.048 35.3753 59.616 35.0753 59.316C34.7873 59.004 34.3793 58.812 33.9233 58.812C33.4793 58.812 33.0713 59.004 32.7713 59.316C32.4713 59.616 32.2793 60.048 32.2793 60.516ZM31.0793 66V60.516C31.0793 59.724 31.3913 58.992 31.9073 58.464C32.4233 57.936 33.1433 57.6 33.9233 57.6C34.7153 57.6 35.4233 57.936 35.9513 58.464C36.4553 58.992 36.7793 59.724 36.7793 60.516V66H35.5673V62.64H32.2793V66H31.0793ZM39.2077 60.276V66H38.0077V57.6H38.9317L42.6157 63.336V57.6H43.8277V66H42.8917L39.2077 60.276ZM47.9041 62.784H47.3041V61.572H50.5321V63.216C50.5321 63.984 50.2201 64.68 49.7161 65.184C49.2121 65.688 48.5161 66 47.7481 66C46.9801 66 46.2841 65.688 45.7801 65.184C45.2761 64.68 44.9641 63.984 44.9641 63.216V60.396C44.9641 59.628 45.2761 58.932 45.7801 58.428C46.2841 57.924 46.9801 57.6 47.7481 57.6C48.5161 57.6 49.2121 57.924 49.7161 58.428C50.2201 58.932 50.5321 59.628 50.5321 60.396V60.996H49.3201V60.396C49.3201 59.964 49.1401 59.568 48.8521 59.28C48.5761 58.992 48.1801 58.812 47.7481 58.812C47.3161 58.812 46.9201 58.992 46.6321 59.28C46.3441 59.568 46.1641 59.964 46.1641 60.396V63.216C46.1641 63.648 46.3441 64.044 46.6321 64.332C46.9201 64.62 47.3161 64.788 47.7481 64.788C48.1801 64.788 48.5761 64.62 48.8521 64.332C49.1401 64.044 49.3201 63.648 49.3201 63.216V62.784H47.9041ZM51.4677 63.12V60.492C51.4677 59.7 51.7917 58.98 52.3077 58.452C52.8357 57.924 53.5557 57.6 54.3477 57.6H57.2277V58.812H54.3477C53.8917 58.812 53.4717 59.004 53.1597 59.304C52.8597 59.616 52.6677 60.036 52.6677 60.492V61.2H56.2917V62.412H52.6677V63.12C52.6677 63.576 52.8597 63.996 53.1597 64.296C53.4717 64.608 53.8917 64.788 54.3477 64.788H57.2277V66H54.3477C53.5557 66 52.8357 65.676 52.3077 65.16C51.7917 64.632 51.4677 63.912 51.4677 63.12Z" fill="#E9DAFA"/>
<path d="M52.3521 20.9966C52.3457 20.9906 52.3378 20.9868 52.3313 20.9809V19.1438C52.3313 17.8515 51.2798 16.8 49.9875 16.8H25.6125C24.3203 16.8 23.2688 17.8515 23.2688 19.1438V20.9809C23.2623 20.9867 23.2544 20.9906 23.248 20.9966C22.9632 21.2616 22.8 21.6368 22.8 22.0257V24.6994C22.8 25.0883 22.9632 25.4635 23.248 25.7285C23.2544 25.7345 23.2622 25.7386 23.2688 25.7445V29.4563C23.2688 29.5119 23.2786 29.5671 23.2981 29.619C24.004 31.5254 25.4114 34.3239 28.1058 36.8306C30.8592 39.3925 33.8088 40.5976 35.798 41.1574C35.8394 41.1691 35.882 41.175 35.925 41.175H39.675C39.7181 41.175 39.7607 41.1691 39.8021 41.1574C41.7913 40.5976 44.7409 39.3925 47.4943 36.8306C50.1887 34.3239 51.5961 31.5254 52.302 29.619C52.3215 29.5671 52.3313 29.5119 52.3313 29.4563V25.7445C52.3379 25.7386 52.3457 25.7345 52.3521 25.7285C52.6369 25.4635 52.8 25.0883 52.8 24.6994V22.0257C52.8 21.6368 52.6369 21.2616 52.3521 20.9966ZM47.6438 25.8415L49.5188 25.9755V26.6438C49.5188 26.9022 49.3085 27.1125 49.05 27.1125H48.1125C47.8541 27.1125 47.6438 26.9022 47.6438 26.6438V25.8415ZM49.9885 25.0691C49.9881 25.0691 49.9879 25.0689 49.9875 25.0689C49.9877 25.0689 49.9874 25.0689 49.9875 25.0689L47.6724 24.9036C46.8679 24.8462 46.2375 24.1691 46.2375 23.3625C46.2375 22.556 46.8679 21.8789 47.6724 21.8215L49.9871 21.6561C49.9869 21.6561 49.9873 21.6561 49.9871 21.6561C49.9874 21.6561 49.9881 21.656 49.9885 21.656L51.3604 21.558C51.4892 21.5459 51.617 21.5928 51.7133 21.6826C51.8094 21.7723 51.8625 21.894 51.8625 22.0257V24.6994C51.8625 24.8311 51.8094 24.9528 51.7133 25.0425C51.6172 25.1323 51.4915 25.1778 51.3604 25.1671L49.9885 25.0691ZM49.5188 20.7496L47.6438 20.8836V20.0813C47.6438 19.8229 47.8541 19.6125 48.1125 19.6125H49.05C49.3085 19.6125 49.5188 19.8229 49.5188 20.0813V20.7496ZM51.3938 19.1438V20.6264C51.3603 20.6262 51.3272 20.6206 51.2935 20.6228L50.4563 20.6826V20.0813C50.4563 19.3058 49.8255 18.675 49.05 18.675H48.1125C47.3371 18.675 46.7063 19.3058 46.7063 20.0813V21.1275C46.0096 21.4656 45.4956 22.1192 45.3455 22.8938H41.473C41.2555 21.1915 41.2622 19.4669 41.4938 17.7375H49.9875C50.763 17.7375 51.3938 18.3683 51.3938 19.1438ZM41.0978 25.8294C41.6709 27.9363 42.5747 29.9291 43.7786 31.7622C43.7163 31.8127 43.6532 31.8582 43.5912 31.9106C40.2174 34.7603 39.427 38.4871 39.2447 40.2375H36.3548C36.175 38.5161 35.3912 34.7676 32.0087 31.9106C31.9467 31.8583 31.8837 31.8128 31.8214 31.7623C33.0253 29.9292 33.9292 27.9363 34.5023 25.8294C34.6823 25.168 34.8258 24.5014 34.939 23.8313H40.6611C40.7743 24.5014 40.9178 25.168 41.0978 25.8294ZM35.073 22.8938C35.2806 21.1903 35.2724 19.4662 35.051 17.7375H40.5491C40.3277 19.4662 40.3195 21.1903 40.5271 22.8938H35.073ZM24.2063 19.1438C24.2063 18.3683 24.8371 17.7375 25.6125 17.7375H34.1063C34.3379 19.4669 34.3446 21.1915 34.1271 22.8938H30.2546C30.1045 22.1192 29.5905 21.4656 28.8938 21.1275V20.0813C28.8938 19.3058 28.263 18.675 27.4875 18.675H26.55C25.7746 18.675 25.1438 19.3058 25.1438 20.0813V20.6826L24.3065 20.6228C24.2728 20.6205 24.2399 20.6261 24.2063 20.6262V19.1438ZM26.0813 25.9755L27.9563 25.8415V26.6438C27.9563 26.9022 27.746 27.1125 27.4875 27.1125H26.55C26.2916 27.1125 26.0813 26.9022 26.0813 26.6438V25.9755ZM27.9277 24.9036L25.613 25.0689C25.6132 25.0689 25.6128 25.0689 25.613 25.0689C25.6127 25.0689 25.6119 25.0691 25.6116 25.0691L24.2397 25.1671C24.1077 25.1755 23.9831 25.132 23.8868 25.0425C23.7906 24.9528 23.7375 24.8311 23.7375 24.6994V22.0257C23.7375 21.894 23.7906 21.7723 23.8868 21.6826C23.9747 21.6008 24.0868 21.5567 24.2054 21.5567C24.2168 21.5567 24.2283 21.5571 24.2397 21.558L25.6116 21.656C25.6119 21.656 25.6122 21.6562 25.6125 21.6562C25.6124 21.6562 25.6127 21.6562 25.6125 21.6562L27.9277 21.8215C28.7322 21.8789 29.3625 22.556 29.3625 23.3625C29.3625 24.1691 28.7322 24.8462 27.9277 24.9036ZM27.9563 20.8836L26.0813 20.7496V20.0813C26.0813 19.8229 26.2916 19.6125 26.55 19.6125H27.4875C27.746 19.6125 27.9563 19.8229 27.9563 20.0813V20.8836ZM24.2074 26.1057C24.2404 26.1057 24.2736 26.1046 24.3065 26.1023L25.1438 26.0425V26.6438C25.1438 27.4193 25.7746 28.05 26.55 28.05H27.4875C28.263 28.05 28.8938 27.4193 28.8938 26.6438V25.5976C29.5905 25.2595 30.1045 24.6059 30.2546 23.8313H33.9851C33.8811 24.4184 33.7556 25.0031 33.5978 25.5832C33.0555 27.5764 32.203 29.4626 31.0693 31.2001C28.3996 29.363 25.606 29.0311 24.2063 28.9913V26.1056C24.2067 26.1056 24.2071 26.1057 24.2074 26.1057ZM24.43 29.9334C25.9615 30.0022 28.8407 30.4618 31.4037 32.627C34.3592 35.1232 35.1681 38.3589 35.3888 40.0527C33.5408 39.4515 31.0702 38.3082 28.7443 36.1445C26.4711 34.0294 25.1643 31.6978 24.43 29.9334ZM46.8558 36.1445C44.5301 38.308 42.0599 39.4513 40.2119 40.0525C40.4241 38.4841 41.2203 35.1406 44.1964 32.627C46.7571 30.464 49.6229 30.0088 51.1692 29.9355C50.4348 31.6996 49.1281 34.0302 46.8558 36.1445ZM51.3938 28.9894C49.9732 29.0227 47.1949 29.3626 44.5305 31.1995C43.3969 29.4622 42.5445 27.5762 42.0023 25.5832C41.8445 25.0031 41.719 24.4184 41.615 23.8313H45.3455C45.4956 24.6059 46.0096 25.2595 46.7063 25.5976V26.6438C46.7063 27.4193 47.3371 28.05 48.1125 28.05H49.05C49.8255 28.05 50.4563 27.4193 50.4563 26.6438V26.0425L51.2935 26.1023C51.3267 26.1046 51.3597 26.1057 51.3927 26.1057C51.393 26.1057 51.3934 26.1056 51.3938 26.1056V28.9894Z" fill="#E9DAFA"/>
</svg>
