<svg width="75" height="75" viewBox="0 0 75 75" fill="none" xmlns="http://www.w3.org/2000/svg">
<rect width="75" height="75" rx="25" fill="#B3A5C4"/>
<rect x="1.19995" y="1.80005" width="72" height="72" rx="25" fill="#312C38"/>
<path d="M17.6285 60.412V58.3C17.6285 57.568 17.9285 56.884 18.4205 56.392C18.9005 55.912 19.5845 55.6 20.3285 55.6H23.0285V56.812H20.3285C19.9085 56.812 19.5365 56.98 19.2725 57.256C18.9965 57.52 18.8285 57.892 18.8285 58.3V59.2H22.0565V60.412H18.8285V64H17.6285V60.412ZM23.4267 61.12V58.492C23.4267 57.7 23.7507 56.98 24.2667 56.452C24.7947 55.924 25.5147 55.6 26.3067 55.6H29.1867V56.812H26.3067C25.8507 56.812 25.4307 57.004 25.1187 57.304C24.8187 57.616 24.6267 58.036 24.6267 58.492V59.2H28.2507V60.412H24.6267V61.12C24.6267 61.576 24.8187 61.996 25.1187 62.296C25.4307 62.608 25.8507 62.788 26.3067 62.788H29.1867V64H26.3067C25.5147 64 24.7947 63.676 24.2667 63.16C23.7507 62.632 23.4267 61.912 23.4267 61.12ZM29.8017 61.12V58.492C29.8017 57.7 30.1257 56.98 30.6417 56.452C31.1697 55.924 31.8897 55.6 32.6817 55.6H35.5617V56.812H32.6817C32.2257 56.812 31.8057 57.004 31.4937 57.304C31.1937 57.616 31.0017 58.036 31.0017 58.492V59.2H34.6257V60.412H31.0017V61.12C31.0017 61.576 31.1937 61.996 31.4937 62.296C31.8057 62.608 32.2257 62.788 32.6817 62.788H35.5617V64H32.6817C31.8897 64 31.1697 63.676 30.6417 63.16C30.1257 62.632 29.8017 61.912 29.8017 61.12ZM39.3896 56.812H37.7096V62.788H39.3896C39.8456 62.788 40.2656 62.608 40.5656 62.296C40.8776 61.996 41.0576 61.576 41.0576 61.12V58.492C41.0576 58.036 40.8776 57.616 40.5656 57.304C40.2656 57.004 39.8456 56.812 39.3896 56.812ZM36.5096 55.6H39.3896C40.1816 55.6 40.9016 55.924 41.4296 56.452C41.9456 56.98 42.2696 57.7 42.2696 58.492V61.12C42.2696 61.912 41.9456 62.632 41.4296 63.16C40.9016 63.676 40.1816 64 39.3896 64H36.5096V55.6ZM43.4002 64V55.6H44.6002V64H43.4002ZM47.1315 58.276V64H45.9315V55.6H46.8555L50.5395 61.336V55.6H51.7515V64H50.8155L47.1315 58.276ZM55.8279 60.784H55.2279V59.572H58.4559V61.216C58.4559 61.984 58.1439 62.68 57.6399 63.184C57.1359 63.688 56.4399 64 55.6719 64C54.9039 64 54.2079 63.688 53.7039 63.184C53.1999 62.68 52.8879 61.984 52.8879 61.216V58.396C52.8879 57.628 53.1999 56.932 53.7039 56.428C54.2079 55.924 54.9039 55.6 55.6719 55.6C56.4399 55.6 57.1359 55.924 57.6399 56.428C58.1439 56.932 58.4559 57.628 58.4559 58.396V58.996H57.2439V58.396C57.2439 57.964 57.0639 57.568 56.7759 57.28C56.4999 56.992 56.1039 56.812 55.6719 56.812C55.2399 56.812 54.8439 56.992 54.5559 57.28C54.2679 57.568 54.0879 57.964 54.0879 58.396V61.216C54.0879 61.648 54.2679 62.044 54.5559 62.332C54.8439 62.62 55.2399 62.788 55.6719 62.788C56.1039 62.788 56.4999 62.62 56.7759 62.332C57.0639 62.044 57.2439 61.648 57.2439 61.216V60.784H55.8279Z" fill="#E9DAFA"/>
<path d="M44.373 30.7817L44.8669 28.8056C44.9551 28.4526 45 28.0896 45 27.726C45 26.4387 44.4271 25.21 43.462 24.3703C44.0181 24.0636 44.4 23.4787 44.4 22.8V20.4C44.4 19.4074 43.5925 18.6 42.6 18.6H42.5538C42.3384 17.1632 41.3396 15.9472 39.9298 15.4776C39.3738 15.2921 39 14.7736 39 14.1873C39 13.9559 39.0738 13.7066 39.2194 13.4473C39.614 12.7456 39.7045 11.923 39.4737 11.1308C39.1784 10.1168 38.3223 9.31145 37.2934 9.07854C36.3814 8.87112 35.4459 9.08176 34.7285 9.6551C34.0113 10.2281 33.6 11.0827 33.6 12C33.6 12.5083 33.7338 13.0131 33.9873 13.4599C34.1285 13.7077 34.2 13.9521 34.2 14.1873C34.2 14.7736 33.8261 15.2921 33.2704 15.4776C31.8643 15.9459 30.8663 17.1563 30.6471 18.6H30.6C29.6074 18.6 28.8 19.4074 28.8 20.4V22.8C28.8 23.4787 29.1818 24.0636 29.7379 24.3703C28.7728 25.21 28.2 26.4387 28.2 27.726C28.2 28.0896 28.2448 28.4529 28.333 28.8056L28.8269 30.7817C29.1858 32.2175 29.1281 33.7184 28.6602 35.122C28.3549 36.0381 28.2 36.9923 28.2 37.9579V45C28.2 46.3234 29.2766 47.4 30.6 47.4H42.6C43.9233 47.4 45 46.3234 45 45V37.9579C45 36.9923 44.845 36.0381 44.5397 35.122C44.0718 33.7184 44.0141 32.2175 44.373 30.7817ZM43.2 20.4V22.8C43.2 23.1308 42.9307 23.4 42.6 23.4H39.6V19.8H42.6C42.9307 19.8 43.2 20.0693 43.2 20.4ZM34.8 19.8H38.4V23.4H34.8V19.8ZM33.6498 16.616C34.6965 16.2668 35.4 15.2906 35.4 14.1856C35.4 13.7414 35.2754 13.2976 35.0305 12.8669C34.8776 12.5974 34.8 12.3056 34.8 12C34.8 11.4495 35.0469 10.9368 35.4776 10.5926C35.9147 10.2434 36.4652 10.1206 37.0286 10.2487C37.6388 10.3869 38.1462 10.8651 38.3217 11.4665C38.5007 12.0812 38.3399 12.5631 38.1732 12.8596C37.9256 13.3011 37.8 13.7476 37.8 14.1873C37.8 15.2906 38.5034 16.2668 39.5504 16.616C40.4648 16.9207 41.131 17.6778 41.3349 18.6H31.8629C32.0639 17.6836 32.7319 16.9219 33.6498 16.616ZM30 20.4C30 20.0693 30.2692 19.8 30.6 19.8H33.6V23.4H30.6C30.2692 23.4 30 23.1308 30 22.8V20.4ZM30.7007 25.1244L31.4 24.6H41.7999L42.4992 25.1244C43.1888 25.6417 43.6395 26.4192 43.7625 27.2631C43.186 26.7061 42.15 25.9327 40.7144 25.7657C39.147 25.5832 37.5304 26.1645 35.9065 27.4931C32.7688 26.104 30.3573 27.3767 29.4187 28.0303C29.4091 27.9291 29.4 27.8277 29.4 27.726C29.4 26.7079 29.8863 25.7353 30.7007 25.1244ZM43.004 28.2012C42.3981 28.7332 40.7264 29.6224 37.1291 28.0656C38.3214 27.2063 39.4719 26.8322 40.5618 26.9561C41.7304 27.0873 42.5789 27.7732 43.004 28.2012ZM43.8 45C43.8 45.6618 43.2618 46.2 42.6 46.2H30.6C29.9381 46.2 29.4 45.6618 29.4 45V37.9579C29.4 37.1215 29.5341 36.295 29.7987 35.5017C30.3389 33.881 30.4054 32.1484 29.9912 30.4905L29.6958 29.3089C29.7356 29.2858 29.778 29.2685 29.8127 29.2354C29.8365 29.2125 32.2353 26.9959 35.7196 28.7306C35.7275 28.735 35.7357 28.7391 35.7439 28.7429C37.8275 29.7829 39.4517 30.1371 40.6998 30.1371C42.0299 30.137 42.9289 29.734 43.4992 29.3284L43.2087 30.4905C42.7945 32.1484 42.861 33.881 43.4012 35.5017C43.6658 36.295 43.8 37.1215 43.8 37.9579V45Z" fill="#E9DAFA"/>
<path d="M31.8 32.4H33C33.3313 32.4 33.6 32.1313 33.6 31.8C33.6 31.4686 33.3313 31.2 33 31.2H31.8C31.4686 31.2 31.2 31.4686 31.2 31.8C31.2 32.1313 31.4686 32.4 31.8 32.4Z" fill="#E9DAFA"/>
<path d="M34.2 33.6001H31.8C31.4686 33.6001 31.2 33.8688 31.2 34.2001C31.2 34.5314 31.4686 34.8001 31.8 34.8001H34.2C34.5313 34.8001 34.8 34.5314 34.8 34.2001C34.8 33.8688 34.5313 33.6001 34.2 33.6001Z" fill="#E9DAFA"/>
<path d="M31.8 37.2H33C33.3313 37.2 33.6 36.9313 33.6 36.6C33.6 36.2687 33.3313 36 33 36H31.8C31.4686 36 31.2 36.2687 31.2 36.6C31.2 36.9313 31.4686 37.2 31.8 37.2Z" fill="#E9DAFA"/>
<path d="M34.2 38.3999H31.8C31.4686 38.3999 31.2 38.6686 31.2 38.9999C31.2 39.3313 31.4686 39.5999 31.8 39.5999H34.2C34.5313 39.5999 34.8 39.3313 34.8 38.9999C34.8 38.6686 34.5313 38.3999 34.2 38.3999Z" fill="#E9DAFA"/>
<path d="M31.8 42H33C33.3313 42 33.6 41.7314 33.6 41.4C33.6 41.0687 33.3313 40.8 33 40.8H31.8C31.4686 40.8 31.2 41.0687 31.2 41.4C31.2 41.7314 31.4686 42 31.8 42Z" fill="#E9DAFA"/>
<path d="M34.2 43.2H31.8C31.4686 43.2 31.2 43.4686 31.2 43.8C31.2 44.1313 31.4686 44.4 31.8 44.4H34.2C34.5313 44.4 34.8 44.1313 34.8 43.8C34.8 43.4686 34.5313 43.2 34.2 43.2Z" fill="#E9DAFA"/>
</svg>