<svg width="75" height="75" viewBox="0 0 75 75" fill="none" xmlns="http://www.w3.org/2000/svg">
<rect width="75" height="75" rx="25" fill="#B3A5C4"/>
<rect x="1.19995" y="1.80005" width="72" height="72" rx="25" fill="#312C38"/>
<path d="M20.6452 58.412V62H19.4452V58.412V57.2V53.6H20.6452V57.2H23.9332V53.6H25.1452V62H23.9332V58.412H20.6452ZM26.2724 59.12V56.492C26.2724 55.7 26.5964 54.98 27.1124 54.452C27.6404 53.924 28.3604 53.6 29.1524 53.6H32.0324V54.812H29.1524C28.6964 54.812 28.2764 55.004 27.9644 55.304C27.6644 55.616 27.4724 56.036 27.4724 56.492V57.2H31.0964V58.412H27.4724V59.12C27.4724 59.576 27.6644 59.996 27.9644 60.296C28.2764 60.608 28.6964 60.788 29.1524 60.788H32.0324V62H29.1524C28.3604 62 27.6404 61.676 27.1124 61.16C26.5964 60.632 26.2724 59.912 26.2724 59.12ZM34.0723 56.516V57.428H37.3603V56.516C37.3603 56.048 37.1683 55.616 36.8683 55.316C36.5803 55.004 36.1723 54.812 35.7163 54.812C35.2723 54.812 34.8643 55.004 34.5643 55.316C34.2643 55.616 34.0723 56.048 34.0723 56.516ZM32.8723 62V56.516C32.8723 55.724 33.1843 54.992 33.7003 54.464C34.2163 53.936 34.9363 53.6 35.7163 53.6C36.5083 53.6 37.2163 53.936 37.7443 54.464C38.2483 54.992 38.5723 55.724 38.5723 56.516V62H37.3603V58.64H34.0723V62H32.8723ZM39.8006 62V53.6H41.0006V60.788H44.7086V62H39.8006ZM45.6974 54.824H43.4534V53.612H49.1654V54.824H46.9094V61.4V62H45.6974V54.824ZM51.0436 58.412V62H49.8436V58.412V57.2V53.6H51.0436V57.2H54.3316V53.6H55.5436V62H54.3316V58.412H51.0436Z" fill="#E9DAFA"/>
<path d="M41.6437 15.6001C40.2146 15.6001 38.8212 15.877 37.4976 16.4236C36.174 15.877 34.7806 15.6001 33.3515 15.6001C27.4429 15.6001 22.6781 20.3444 22.5035 26.4004C22.2451 35.1889 36.5495 45.0786 37.159 45.4953C37.3641 45.6361 37.6311 45.6353 37.8363 45.4952C37.8972 45.4536 39.3451 44.4599 41.3396 42.8242C41.5962 42.6139 41.6331 42.2359 41.4234 41.9796C41.213 41.7238 40.8345 41.6852 40.579 41.8961C39.1822 43.0416 38.0396 43.8789 37.4982 44.2659C35.3273 42.7094 23.4843 33.8676 23.7035 26.4353C23.8587 21.0323 28.0968 16.8001 33.3515 16.8001C34.7003 16.8001 36.0134 17.0775 37.2556 17.6251C37.4103 17.6931 37.5849 17.6931 37.7396 17.6251C38.9818 17.0775 40.2949 16.8001 41.6437 16.8001C46.8984 16.8001 51.1365 21.0323 51.2917 26.4355C51.4347 31.2654 46.5269 36.6622 42.3849 40.3393C42.1371 40.5593 42.1148 40.9387 42.3345 41.1865C42.5548 41.4341 42.9345 41.4561 43.1818 41.2369C47.5154 37.3899 52.6476 31.6932 52.4917 26.4007C52.3171 20.3444 47.5523 15.6001 41.6437 15.6001Z" fill="#E9DAFA"/>
<path d="M33.9545 18.6C33.9545 18.2686 33.6861 18 33.3545 18C28.7531 18 25.0395 21.7213 24.8994 26.4718C24.89 26.8028 25.1508 27.0794 25.4818 27.0891C25.4877 27.0894 25.4936 27.0894 25.5 27.0894C25.8229 27.0894 26.0894 26.8321 26.0994 26.5069C26.2195 22.4095 29.4064 19.2 33.3545 19.2C33.6861 19.2 33.9545 18.9313 33.9545 18.6Z" fill="#E9DAFA"/>
<path d="M35.0977 37.8H39.8977C40.2293 37.8 40.4977 37.5313 40.4977 37.2V32.4H45.2977C45.6293 32.4 45.8977 32.1313 45.8977 31.8V27C45.8977 26.6686 45.6293 26.4 45.2977 26.4H40.4977V21.6C40.4977 21.2686 40.2293 21 39.8977 21H35.0977C34.766 21 34.4977 21.2686 34.4977 21.6V26.4H29.6977C29.366 26.4 29.0977 26.6686 29.0977 27V31.8C29.0977 32.1313 29.366 32.4 29.6977 32.4H34.4977V37.2C34.4977 37.5313 34.766 37.8 35.0977 37.8ZM30.2977 31.2V27.6H35.0977C35.4293 27.6 35.6977 27.3313 35.6977 27V22.2H39.2977V27C39.2977 27.3313 39.566 27.6 39.8977 27.6H44.6977V31.2H39.8977C39.566 31.2 39.2977 31.4686 39.2977 31.8V36.6H35.6977V31.8C35.6977 31.4686 35.4293 31.2 35.0977 31.2H30.2977Z" fill="#E9DAFA"/>
</svg>
