<svg width="75" height="75" viewBox="0 0 75 75" fill="none" xmlns="http://www.w3.org/2000/svg">
<rect width="75" height="75" rx="25" fill="#B3A5C4"/>
<rect x="1.19995" y="1.80005" width="72" height="72" rx="25" fill="#312C38"/>
<path d="M23.5022 58.476V64.2H22.3022V55.8H23.2262L25.2062 58.884L27.1862 55.8H28.1222V64.2H26.9102V58.476L25.2062 61.128L23.5022 58.476ZM33.3626 57.516C33.0506 57.216 32.6186 57.024 32.1506 57.024C31.6826 57.024 31.2626 57.216 30.9506 57.516C30.6386 57.828 30.4466 58.26 30.4466 58.728V61.296C30.4466 61.764 30.6386 62.184 30.9506 62.496C31.2626 62.808 31.6826 63 32.1506 63C32.6186 63 33.0506 62.808 33.3626 62.496C33.6626 62.184 33.8546 61.764 33.8546 61.296V58.728C33.8546 58.26 33.6626 57.828 33.3626 57.516ZM30.0986 56.664C30.6266 56.136 31.3586 55.812 32.1506 55.812C32.9546 55.812 33.6866 56.136 34.2146 56.664C34.7426 57.192 35.0666 57.924 35.0666 58.728V61.296C35.0666 62.1 34.7426 62.82 34.2146 63.348C33.6866 63.876 32.9546 64.212 32.1506 64.212C31.3586 64.212 30.6266 63.876 30.0986 63.348C29.5706 62.82 29.2466 62.1 29.2466 61.296V58.728C29.2466 57.924 29.5706 57.192 30.0986 56.664ZM40.1009 57.516C39.7889 57.216 39.3569 57.024 38.8889 57.024C38.4209 57.024 38.0009 57.216 37.6889 57.516C37.3769 57.828 37.1849 58.26 37.1849 58.728V61.296C37.1849 61.764 37.3769 62.184 37.6889 62.496C38.0009 62.808 38.4209 63 38.8889 63C39.3569 63 39.7889 62.808 40.1009 62.496C40.4009 62.184 40.5929 61.764 40.5929 61.296V58.728C40.5929 58.26 40.4009 57.828 40.1009 57.516ZM36.8369 56.664C37.3649 56.136 38.0969 55.812 38.8889 55.812C39.6929 55.812 40.4249 56.136 40.9529 56.664C41.4809 57.192 41.8049 57.924 41.8049 58.728V61.296C41.8049 62.1 41.4809 62.82 40.9529 63.348C40.4249 63.876 39.6929 64.212 38.8889 64.212C38.0969 64.212 37.3649 63.876 36.8369 63.348C36.3089 62.82 35.9849 62.1 35.9849 61.296V58.728C35.9849 57.924 36.3089 57.192 36.8369 56.664ZM45.8072 57.012H44.1272V62.988H45.8072C46.2632 62.988 46.6832 62.808 46.9832 62.496C47.2952 62.196 47.4752 61.776 47.4752 61.32V58.692C47.4752 58.236 47.2952 57.816 46.9832 57.504C46.6832 57.204 46.2632 57.012 45.8072 57.012ZM42.9272 55.8H45.8072C46.5992 55.8 47.3192 56.124 47.8472 56.652C48.3632 57.18 48.6872 57.9 48.6872 58.692V61.32C48.6872 62.112 48.3632 62.832 47.8472 63.36C47.3192 63.876 46.5992 64.2 45.8072 64.2H42.9272V55.8Z" fill="#E9DAFA"/>
<path d="M30.5993 24.6C30.7818 24.6 30.962 24.5171 31.0798 24.3601C31.0909 24.3455 31.3549 24 31.7999 24C31.8184 24 32.2531 24.0042 32.5197 24.3601C32.719 24.6252 33.0948 24.6792 33.36 24.4802C33.6251 24.2813 33.6787 23.9051 33.4801 23.64C32.8804 22.8405 31.9754 22.8 31.7999 22.8C30.8006 22.8 30.2252 23.4997 30.12 23.64C29.9211 23.9051 29.9747 24.2813 30.2399 24.4799C30.348 24.5611 30.4742 24.6 30.5993 24.6Z" fill="#E9DAFA"/>
<path d="M38.2787 24.3616C38.2899 24.3469 38.557 24 39 24C39.0182 24 39.4529 24.0042 39.7201 24.3601C39.8379 24.5171 40.0184 24.6 40.2006 24.6C40.326 24.6 40.452 24.5611 40.5604 24.4799C40.8252 24.281 40.8785 23.9051 40.6799 23.64C40.0799 22.8405 39.1752 22.8 39 22.8C38.0045 22.8 37.4268 23.4985 37.3213 23.6385C37.1215 23.9031 37.1742 24.2792 37.4385 24.4791C37.7028 24.6777 38.0789 24.6258 38.2787 24.3616Z" fill="#E9DAFA"/>
<path d="M30 26.4C30 26.0687 29.7313 25.8 29.4 25.8H28.8C28.4686 25.8 28.2 26.0687 28.2 26.4C28.2 26.7314 28.4686 27 28.8 27H29.4C29.7313 27 30 26.7314 30 26.4Z" fill="#E9DAFA"/>
<path d="M41.4 27H42C42.3317 27 42.6 26.7314 42.6 26.4C42.6 26.0687 42.3317 25.8 42 25.8H41.4C41.0684 25.8 40.8 26.0687 40.8 26.4C40.8 26.7314 41.0684 27 41.4 27Z" fill="#E9DAFA"/>
<path d="M45.7711 40.5248C45.3627 40.227 44.8958 40.049 44.4 39.9722V37.3651C44.4 35.5204 43.445 33.8103 41.9193 32.8265C42.9435 31.8755 43.7621 30.7092 44.2955 29.3938C44.3307 29.3948 44.3647 29.3999 44.4 29.3999C46.3852 29.3999 48 27.7851 48 25.7999C48 23.8147 46.3852 22.1999 44.4 22.1999C44.3647 22.1999 44.3308 22.2055 44.2957 22.2065C43.1349 19.3436 40.6332 17.1691 37.5724 16.4572C38.082 15.9192 38.4 15.1976 38.4 14.3999C38.4 12.7458 37.0542 11.3999 35.4 11.3999C33.7459 11.3999 32.4 12.7458 32.4 14.3999C32.4 14.7313 32.6687 14.9999 33 14.9999C33.3314 14.9999 33.6 14.7313 33.6 14.3999C33.6 13.4073 34.4075 12.5999 35.4 12.5999C36.3926 12.5999 37.2 13.4073 37.2 14.3999C37.2 15.3925 36.3926 16.1999 35.4 16.1999H34.8C34.7288 16.1999 34.6626 16.2177 34.5991 16.2405C30.9245 16.5462 27.8345 18.9261 26.5043 22.2068C26.4692 22.2058 26.4354 22.1999 26.4 22.1999C24.4149 22.1999 22.8 23.8147 22.8 25.7999C22.8 27.7851 24.4149 29.3999 26.4 29.3999C26.4354 29.3999 26.4692 29.3938 26.5043 29.3928C27.0381 30.7094 27.8574 31.8768 28.8828 32.8283C27.358 33.8122 26.4 35.5243 26.4 37.3651V39.9718C25.9045 40.0488 25.4378 40.2268 25.0295 40.5248C24.1342 41.1781 23.6485 42.2568 23.6623 43.562C23.6749 44.7919 24.1354 46.0906 24.9592 47.2188C25.7828 48.3474 26.8793 49.1817 28.0468 49.5688C28.5182 49.7249 28.9802 49.8022 29.4211 49.8022C30.1392 49.8022 30.8016 49.5966 31.3562 49.1917C31.7422 48.91 32.0468 48.5454 32.2733 48.1216L32.473 48.3213C33.0396 48.8879 33.7928 49.1999 34.5941 49.1999H36.2057C37.0073 49.1999 37.7608 48.8879 38.3274 48.3213L38.5318 48.1168C38.7538 48.5389 39.0544 48.9076 39.4436 49.1917C39.9985 49.5966 40.6606 49.8022 41.379 49.8022C41.8196 49.8022 42.2819 49.7246 42.753 49.5688C43.9208 49.1817 45.0176 48.3474 45.8409 47.2191C46.6647 46.0909 47.1252 44.7922 47.1381 43.562C47.1516 42.2568 46.6659 41.1781 45.7711 40.5248ZM46.8 25.7999C46.8 27.0234 45.8766 28.0246 44.6917 28.1704C44.8858 27.4106 45 26.6193 45 25.7999C45 24.9805 44.8858 24.1892 44.6917 23.4294C45.8766 23.5752 46.8 24.5764 46.8 25.7999ZM24 25.7999C24 24.5764 24.9237 23.5753 26.1084 23.4294C25.9143 24.1892 25.8 24.9805 25.8 25.7999C25.8 26.6193 25.9143 27.4106 26.1084 28.1704C24.9237 28.0245 24 27.0234 24 25.7999ZM27 25.7999C27 21.1681 30.7682 17.3999 35.4 17.3999C40.0319 17.3999 43.8 21.1681 43.8 25.7999C43.8 30.4317 40.0319 34.1999 35.4 34.1999C30.7682 34.1999 27 30.4317 27 25.7999ZM29.8774 33.6391C31.4412 34.7442 33.3439 35.3999 35.4 35.3999C37.4557 35.3999 39.3579 34.7446 40.9214 33.6401C42.308 34.3565 43.2 35.7956 43.2 37.3651V39.9827C42.5896 40.0799 41.9676 40.3094 41.3723 40.6624C41.3088 40.3994 41.0829 40.1999 40.8 40.1999H40.2V37.7999C40.2 37.4686 39.9317 37.1999 39.6 37.1999C39.2684 37.1999 39 37.4686 39 37.7999V40.1999H31.8V37.7999C31.8 37.4686 31.5314 37.1999 31.2 37.1999C30.8687 37.1999 30.6 37.4686 30.6 37.7999V40.1999H30C29.7177 40.1999 29.4917 40.3991 29.4279 40.6619C28.8326 40.3088 28.2105 40.0792 27.6 39.982V37.3651C27.6 35.7993 28.4922 34.3546 29.8774 33.6391ZM39.3733 42.4974C39.2063 42.7261 39.0608 42.9619 38.9263 43.1999H37.8V41.3999H40.2V41.558C39.9059 41.8394 39.6268 42.1505 39.3733 42.4974ZM31.8755 43.1999C31.7396 42.9606 31.5926 42.7248 31.4265 42.4974C31.1732 42.1504 30.8941 41.8392 30.6 41.5578V41.3999H33V43.1999H31.8755ZM34.2 41.3999H36.6V43.1999H34.2V41.3999ZM30.6487 48.2226C30.0753 48.6415 29.2858 48.7147 28.4245 48.4294C27.4922 48.1206 26.6057 47.4395 25.9284 46.5113C25.251 45.5835 24.8722 44.5314 24.862 43.5494C24.8526 42.6427 25.1634 41.9126 25.7368 41.4939C26.0939 41.2335 26.5216 41.1102 26.9825 41.1102C28.1338 41.1102 29.4903 41.8804 30.4574 43.2052C31.1347 44.133 31.5135 45.1851 31.5238 46.1671C31.5332 47.0738 31.2223 47.8039 30.6487 48.2226ZM37.479 47.4729C37.1391 47.8127 36.6868 47.9999 36.2057 47.9999H34.5941C34.1204 47.9999 33.6566 47.8077 33.3214 47.4729L32.6779 46.8293C32.7069 46.6114 32.7259 46.3881 32.7235 46.1545C32.7176 45.5765 32.6092 44.9835 32.4141 44.3999H38.3885C38.1136 45.2318 38.0296 46.0646 38.1299 46.8216L37.479 47.4729ZM44.8717 46.5116C44.1944 47.4395 43.3079 48.1206 42.3756 48.4294C41.5137 48.7156 40.7239 48.6409 40.1514 48.2226C38.9028 47.3111 38.9883 45.0603 40.3424 43.2049C41.6965 41.3504 43.8147 40.5825 45.0633 41.4939C45.637 41.9126 45.9475 42.6427 45.9381 43.5494C45.9282 44.5317 45.5491 45.5835 44.8717 46.5116Z" fill="#E9DAFA"/>
<path d="M30.6 28.8C30.6 30.2539 31.7617 31.4768 33.2996 31.7371C33.7065 32.4852 34.4902 33 35.4 33C36.31 33 37.0936 32.4852 37.5004 31.7371C39.0378 31.4769 40.2 30.2539 40.2 28.8C40.2 27.1459 38.7193 25.8 36.9 25.8C36.3761 25.8 35.864 25.9134 35.4 26.1299C34.9359 25.9134 34.4238 25.8 33.9 25.8C32.0803 25.8 30.6 27.1459 30.6 28.8ZM33.9 27C34.3321 27 34.7332 27.1087 35.0924 27.3232C35.2816 27.4363 35.5183 27.4363 35.7076 27.3232C36.0615 27.1117 36.474 27 36.9 27C38.0578 27 39 27.8075 39 28.8C39 29.5144 38.5029 30.14 37.7852 30.429C37.7497 29.9376 37.5714 29.4637 37.2586 29.0813C37.0482 28.8247 36.6703 28.786 36.4142 28.9966C36.1576 29.2064 36.1195 29.5843 36.3293 29.8407C36.5062 30.0572 36.6 30.3197 36.6 30.6C36.6 31.2619 36.0615 31.8 35.4 31.8C34.7382 31.8 34.2 31.2619 34.2 30.6C34.2 30.315 34.2964 30.0493 34.4786 29.8313C34.6913 29.5773 34.6576 29.1988 34.4033 28.9861C34.149 28.774 33.7711 28.8068 33.5581 29.0614C33.2352 29.4474 33.0511 29.9284 33.015 30.4292C32.2971 30.1402 31.8 29.5145 31.8 28.8C31.8 27.8075 32.7422 27 33.9 27Z" fill="#E9DAFA"/>
</svg>
