<svg width="75" height="75" viewBox="0 0 75 75" fill="none" xmlns="http://www.w3.org/2000/svg">
<rect width="75" height="75" rx="25" fill="#B3A5C4"/>
<rect x="1.80005" y="1.80005" width="72" height="72" rx="25" fill="#312C38"/>
<path d="M25.7756 53.6759V59.3999H24.5756V50.9999H25.4996L29.1836 56.7359V50.9999H30.3956V59.3999H29.4596L25.7756 53.6759ZM35.6361 52.7159C35.3241 52.4159 34.8921 52.2239 34.4241 52.2239C33.9561 52.2239 33.5361 52.4159 33.2241 52.7159C32.9121 53.0279 32.7201 53.4599 32.7201 53.9279V56.4959C32.7201 56.9639 32.9121 57.3839 33.2241 57.6959C33.5361 58.0079 33.9561 58.1999 34.4241 58.1999C34.8921 58.1999 35.3241 58.0079 35.6361 57.6959C35.9361 57.3839 36.1281 56.9639 36.1281 56.4959V53.9279C36.1281 53.4599 35.9361 53.0279 35.6361 52.7159ZM32.3721 51.8639C32.9001 51.3359 33.6321 51.0119 34.4241 51.0119C35.2281 51.0119 35.9601 51.3359 36.4881 51.8639C37.0161 52.3919 37.3401 53.1239 37.3401 53.9279V56.4959C37.3401 57.2999 37.0161 58.0199 36.4881 58.5479C35.9601 59.0759 35.2281 59.4119 34.4241 59.4119C33.6321 59.4119 32.9001 59.0759 32.3721 58.5479C31.8441 58.0199 31.5201 57.2999 31.5201 56.4959V53.9279C31.5201 53.1239 31.8441 52.3919 32.3721 51.8639ZM39.9763 52.2239H37.7323V51.0119H43.4443V52.2239H41.1883V58.7999V59.3999H39.9763V52.2239ZM43.8365 56.5199V53.8919C43.8365 53.0999 44.1605 52.3799 44.6765 51.8519C45.2045 51.3239 45.9245 50.9999 46.7165 50.9999H49.5965V52.2119H46.7165C46.2605 52.2119 45.8405 52.4039 45.5285 52.7039C45.2285 53.0159 45.0365 53.4359 45.0365 53.8919V54.5999H48.6605V55.8119H45.0365V56.5199C45.0365 56.9759 45.2285 57.3959 45.5285 57.6959C45.8405 58.0079 46.2605 58.1879 46.7165 58.1879H49.5965V59.3999H46.7165C45.9245 59.3999 45.2045 59.0759 44.6765 58.5599C44.1605 58.0319 43.8365 57.3119 43.8365 56.5199Z" fill="#E9DAFA"/>
<path d="M22.2787 44.7207C22.1458 44.9505 22.184 45.2408 22.3716 45.4285C22.4845 45.5413 22.6344 45.6001 22.7861 45.6001C22.8866 45.6001 22.9877 45.5743 23.0793 45.5213C26.3955 43.603 29.4504 41.2569 32.1593 38.5481L33.7106 36.9967L37.8493 41.1355C37.9638 41.2499 38.1137 41.3071 38.2637 41.3071C38.4136 41.3071 38.5635 41.2499 38.678 41.1355L40.0103 39.8031C40.1303 39.6831 40.1923 39.517 40.1805 39.3478C39.9886 36.6137 40.989 33.9352 42.9251 31.9991C44.9571 29.9672 47.7631 28.9783 50.6238 29.286C50.8981 29.316 51.1641 29.1407 51.2459 28.8776L52.1735 25.8983C52.2382 25.6904 52.1823 25.4638 52.0283 25.3098L49.0368 22.3182C48.7988 22.0803 48.4072 22.0898 48.1815 22.3467C47.9755 22.5811 48.0015 22.9403 48.2222 23.161L50.9493 25.8881L50.4152 27.6035L40.1966 17.3848L41.9119 16.8507L44.6673 19.6061C44.8961 19.835 45.2671 19.835 45.496 19.6061C45.7248 19.3773 45.7248 19.0062 45.496 18.7774L42.4902 15.7717C42.3362 15.6178 42.1097 15.5619 41.9017 15.6266L38.9224 16.5541C38.6587 16.6359 38.4846 16.902 38.514 17.1762C38.8217 20.0369 37.8328 22.843 35.8009 24.8749C33.8645 26.8113 31.1855 27.8117 28.4515 27.6187C28.2826 27.6069 28.116 27.6689 27.996 27.7889L26.6636 29.1212C26.5538 29.2311 26.492 29.3801 26.492 29.5355C26.492 29.6909 26.5538 29.84 26.6636 29.9499L30.8032 34.0894L29.2519 35.6408C26.543 38.3497 24.1968 41.4047 22.2787 44.7207ZM28.6389 28.8032C28.7993 28.8105 28.9591 28.8141 29.1188 28.8141C31.9272 28.814 34.6304 27.7027 36.6297 25.7036C38.5495 23.7837 39.641 21.2492 39.7347 18.5803L49.2198 28.0654C46.5509 28.1591 44.0164 29.2505 42.0965 31.1704C39.984 33.283 38.8627 36.1816 38.996 39.1601L38.2637 39.8926L27.9067 29.5355L28.6389 28.8032ZM31.6319 34.9181L32.8819 36.1681L31.3307 37.7194C29.2742 39.776 27.0127 41.6177 24.5855 43.2145C26.1823 40.7873 28.0241 38.526 30.0806 36.4693L31.6319 34.9181Z" fill="#E9DAFA"/>
<path d="M46.3125 21.2349C46.4899 21.5008 46.8588 21.5729 47.1246 21.3966C47.3906 21.2202 47.4633 20.8497 47.2869 20.5845C47.11 20.3185 46.7397 20.2454 46.4743 20.4222C46.2083 20.5993 46.1359 20.9695 46.3125 21.2349Z" fill="#E9DAFA"/>
</svg>
