<svg width="77" height="32" viewBox="0 0 77 32" fill="none" xmlns="http://www.w3.org/2000/svg">
<rect x="1" y="1" width="75" height="30" rx="15" fill="#E9DAFA" stroke="white" stroke-width="2"/>
<path d="M21.8226 17.416V16.616H23.4226V17.416C23.4226 17.96 23.6466 18.456 24.0146 18.808C24.3666 19.176 24.8626 19.4 25.4066 19.4C25.9026 19.4 26.3346 19.112 26.6066 18.728C26.7506 18.52 26.8466 18.264 26.8946 18.024C26.9266 17.768 26.8946 17.528 26.7986 17.304C26.6066 16.824 26.1106 16.408 25.1986 16.152C23.7426 15.768 22.8946 14.968 22.5266 14.056C22.3186 13.56 22.2706 13.032 22.3346 12.536C22.3986 12.04 22.5906 11.56 22.8786 11.144C23.4226 10.36 24.3186 9.816 25.4066 9.816C26.3666 9.816 27.1506 10.168 27.7266 10.744C28.3346 11.352 28.6866 12.216 28.6866 13.08V13.896H27.0706V13.08C27.0706 12.632 26.8946 12.2 26.5746 11.88C26.3026 11.608 25.9026 11.432 25.4066 11.432C24.8946 11.432 24.4626 11.688 24.2066 12.072V12.056C24.0626 12.264 23.9666 12.504 23.9346 12.744C23.9026 12.984 23.9346 13.224 24.0146 13.448C24.2066 13.928 24.7186 14.36 25.6146 14.6C27.0866 14.984 27.9186 15.784 28.3026 16.68C28.5106 17.192 28.5586 17.72 28.4786 18.232C28.4146 18.728 28.2226 19.224 27.9346 19.64C27.3746 20.44 26.4786 21.016 25.4066 21.016C24.4146 21.016 23.5186 20.6 22.8626 19.96C22.2226 19.304 21.8226 18.408 21.8226 17.416ZM31.5548 13.688V14.904H35.9388V13.688C35.9388 13.064 35.6828 12.488 35.2828 12.088C34.8988 11.672 34.3548 11.416 33.7468 11.416C33.1548 11.416 32.6108 11.672 32.2108 12.088C31.8108 12.488 31.5548 13.064 31.5548 13.688ZM29.9548 21V13.688C29.9548 12.632 30.3708 11.656 31.0588 10.952C31.7468 10.248 32.7068 9.8 33.7468 9.8C34.8028 9.8 35.7468 10.248 36.4508 10.952C37.1228 11.656 37.5548 12.632 37.5548 13.688V21H35.9388V16.52H31.5548V21H29.9548ZM44.6728 9.816H46.3688C45.2328 13.352 43.8728 17.544 42.7688 21.016H41.5848C40.5128 17.64 39.1208 13.32 38.0008 9.816H39.6808L40.1128 11.144L42.1768 17.576L44.2408 11.16L44.6728 9.816ZM46.7955 17.16V13.656C46.7955 12.6 47.2275 11.64 47.9155 10.936C48.6195 10.232 49.5795 9.8 50.6355 9.8H54.4755V11.416H50.6355C50.0275 11.416 49.4675 11.672 49.0515 12.072C48.6515 12.488 48.3955 13.048 48.3955 13.656V14.6H53.2275V16.216H48.3955V17.16C48.3955 17.768 48.6515 18.328 49.0515 18.728C49.4675 19.144 50.0275 19.384 50.6355 19.384H54.4755V21H50.6355C49.5795 21 48.6195 20.568 47.9155 19.88C47.2275 19.176 46.7955 18.216 46.7955 17.16Z" fill="black"/>
</svg>
