<svg width="75" height="75" viewBox="0 0 75 75" fill="none" xmlns="http://www.w3.org/2000/svg">
<rect width="75" height="75" rx="25" fill="#B3A5C4"/>
<rect x="1.20007" y="1.80005" width="72" height="72" rx="25" fill="#312C38"/>
<path d="M23.3672 58.516V59.428H26.6552V58.516C26.6552 58.048 26.4632 57.616 26.1632 57.316C25.8752 57.004 25.4672 56.812 25.0112 56.812C24.5672 56.812 24.1592 57.004 23.8592 57.316C23.5592 57.616 23.3672 58.048 23.3672 58.516ZM22.1672 64V58.516C22.1672 57.724 22.4792 56.992 22.9952 56.464C23.5112 55.936 24.2312 55.6 25.0112 55.6C25.8032 55.6 26.5112 55.936 27.0392 56.464C27.5432 56.992 27.8672 57.724 27.8672 58.516V64H26.6552V60.64H23.3672V64H22.1672ZM28.7595 61.312V60.712H29.9595V61.312C29.9595 61.72 30.1275 62.092 30.4035 62.356C30.6675 62.632 31.0395 62.8 31.4475 62.8C31.8195 62.8 32.1435 62.584 32.3475 62.296C32.4555 62.14 32.5275 61.948 32.5635 61.768C32.5875 61.576 32.5635 61.396 32.4915 61.228C32.3475 60.868 31.9755 60.556 31.2915 60.364C30.1995 60.076 29.5635 59.476 29.2875 58.792C29.1315 58.42 29.0955 58.024 29.1435 57.652C29.1915 57.28 29.3355 56.92 29.5515 56.608C29.9595 56.02 30.6315 55.612 31.4475 55.612C32.1675 55.612 32.7555 55.876 33.1875 56.308C33.6435 56.764 33.9075 57.412 33.9075 58.06V58.672H32.6955V58.06C32.6955 57.724 32.5635 57.4 32.3235 57.16C32.1195 56.956 31.8195 56.824 31.4475 56.824C31.0635 56.824 30.7395 57.016 30.5475 57.304V57.292C30.4395 57.448 30.3675 57.628 30.3435 57.808C30.3195 57.988 30.3435 58.168 30.4035 58.336C30.5475 58.696 30.9315 59.02 31.6035 59.2C32.7075 59.488 33.3315 60.088 33.6195 60.76C33.7755 61.144 33.8115 61.54 33.7515 61.924C33.7035 62.296 33.5595 62.668 33.3435 62.98C32.9235 63.58 32.2515 64.012 31.4475 64.012C30.7035 64.012 30.0315 63.7 29.5395 63.22C29.0595 62.728 28.7595 62.056 28.7595 61.312ZM34.9666 64V55.6H36.1666V62.788H39.8746V64H34.9666ZM40.2822 61.12V58.492C40.2822 57.7 40.6062 56.98 41.1222 56.452C41.6502 55.924 42.3702 55.6 43.1622 55.6H46.0422V56.812H43.1622C42.7062 56.812 42.2862 57.004 41.9742 57.304C41.6742 57.616 41.4822 58.036 41.4822 58.492V59.2H45.1062V60.412H41.4822V61.12C41.4822 61.576 41.6742 61.996 41.9742 62.296C42.2862 62.608 42.7062 62.788 43.1622 62.788H46.0422V64H43.1622C42.3702 64 41.6502 63.676 41.1222 63.16C40.6062 62.632 40.2822 61.912 40.2822 61.12ZM46.6572 61.12V58.492C46.6572 57.7 46.9812 56.98 47.4972 56.452C48.0252 55.924 48.7452 55.6 49.5372 55.6H52.4172V56.812H49.5372C49.0812 56.812 48.6612 57.004 48.3492 57.304C48.0492 57.616 47.8572 58.036 47.8572 58.492V59.2H51.4812V60.412H47.8572V61.12C47.8572 61.576 48.0492 61.996 48.3492 62.296C48.6612 62.608 49.0812 62.788 49.5372 62.788H52.4172V64H49.5372C48.7452 64 48.0252 63.676 47.4972 63.16C46.9812 62.632 46.6572 61.912 46.6572 61.12ZM54.5651 56.824V59.86H56.4611C56.8811 59.86 57.2531 59.692 57.5291 59.416C57.8051 59.14 57.9731 58.756 57.9731 58.336C57.9731 57.916 57.8051 57.544 57.5291 57.268C57.2531 56.992 56.8811 56.824 56.4611 56.824H54.5651ZM54.5651 61.072V64.012H53.3651V55.612H56.4611C57.2051 55.612 57.8891 55.912 58.3931 56.404C58.8851 56.908 59.1851 57.592 59.1851 58.336C59.1851 59.092 58.8851 59.776 58.3931 60.268C57.8891 60.76 57.2051 61.072 56.4611 61.072H54.5651Z" fill="#E9DAFA"/>
<path d="M56.2201 44.6507C55.7244 44.2587 55.0904 44.1155 54.4728 44.2617C53.2969 44.5388 52.1128 44.7801 50.9242 44.9975L49.9918 42.6667C52.1334 41.7536 53.7037 39.7448 53.9619 37.2908L54.5399 31.8H54.6C55.5926 31.8 56.4 30.9925 56.4 30V28.8C56.4 27.8074 55.5926 27 54.6 27H37.2V15C37.2 14.0074 36.3926 13.2 35.4 13.2H34.8C33.9301 13.2 33.2028 13.8202 33.0362 14.6417C31.6385 15.5282 30.1477 16.2696 28.5943 16.8363C27.1811 17.352 25.7127 17.7234 24.2263 17.9537L23.8113 17.5631C23.5699 17.3358 23.1908 17.3469 22.9629 17.5886C22.7361 17.83 22.7472 18.2097 22.9886 18.4368L23.3845 18.8093C23.3134 20.105 23.1258 21.3985 22.817 22.6573C22.4499 24.1572 21.9095 25.6144 21.2225 27H21C20.0074 27 19.2 27.8074 19.2 28.8V30C19.2 30.9925 20.0074 31.8 21 31.8H21.06L21.6381 37.2911C21.9044 39.8222 23.5642 41.8852 25.8099 42.7547L24.8978 45.0394C23.638 44.8129 22.3835 44.5572 21.1377 44.2637C20.5172 44.1187 19.8761 44.2605 19.3781 44.6545C18.8836 45.0462 18.6 45.6331 18.6 46.2644C18.6 47.2151 19.241 48.0369 20.1592 48.263C25.926 49.681 31.8615 50.4 37.8 50.4C43.7343 50.4 49.667 49.6816 55.4326 48.2651C56.3554 48.0377 57 47.2157 57 46.2656V46.2618C57 45.6304 56.7158 45.043 56.2201 44.6507ZM49.7155 45.2077C48.7466 45.368 47.7747 45.5087 46.8 45.6295V43.2H47.3982C47.8959 43.2 48.379 43.1391 48.8463 43.0348L49.7155 45.2077ZM27.0809 41.88C27.4145 41.3907 27.6 40.8109 27.6 40.2C27.6 38.5459 26.2541 37.2 24.6 37.2C23.9873 37.2 23.4078 37.384 22.9194 37.7162C22.8815 37.5358 22.8508 37.3525 22.831 37.1654L22.6849 35.7776C23.1418 35.1567 23.8373 34.8 24.6 34.8C25.6359 34.8 26.5494 35.472 26.8734 36.4725C26.9531 36.7204 27.184 36.8879 27.4441 36.8879C27.4488 36.8871 27.4541 36.8876 27.4594 36.8879C28.5011 36.8879 29.4152 37.5471 29.7351 38.5318C30.0556 39.5162 29.7 40.5917 28.8498 41.2084C28.6388 41.3613 28.551 41.6326 28.6312 41.8801C28.6437 41.9183 28.6448 41.9609 28.6554 42H28.2017C27.8174 42 27.4433 41.9562 27.0809 41.88ZM45.6 43.2V45.7683C40.4199 46.3234 35.1802 46.3235 30 45.7683V43.2H45.6ZM49.1502 33.4084C48.6134 33.019 48.2685 32.4358 48.1775 31.8H50.4651C50.4247 31.9963 50.4 32.196 50.4 32.4C50.4 33.9032 51.5151 35.1402 52.9595 35.3554L52.7964 36.9041C51.9777 37.3641 50.9865 37.3201 50.2248 36.7687C49.3851 36.1576 49.0406 35.0777 49.3681 34.0813C49.4496 33.8334 49.3617 33.5616 49.1502 33.4084ZM53.0844 34.1681C52.2424 34.018 51.6 33.2845 51.6 32.4C51.6 32.1927 51.6477 31.9937 51.7176 31.8H53.3338L53.0844 34.1681ZM34.8 14.4H35.4C35.731 14.4 36 14.6692 36 15V27H34.2V15C34.2 14.6692 34.4689 14.4 34.8 14.4ZM29.0056 17.9636C30.3896 17.4585 31.7291 16.826 33 16.0775V26.2113L25.3178 18.981C26.5707 18.7376 27.8074 18.4008 29.0056 17.9636ZM23.983 22.9426C24.2302 21.9331 24.4028 20.9024 24.5067 19.8655L32.087 27H22.5615C23.1644 25.6965 23.6414 24.336 23.983 22.9426ZM20.4 30V28.8C20.4 28.4692 20.6689 28.2 21 28.2H54.6C54.931 28.2 55.2 28.4692 55.2 28.8V30C55.2 30.3307 54.931 30.6 54.6 30.6H21C20.6689 30.6 20.4 30.3307 20.4 30ZM41.8318 33.4813C42.1593 34.4777 41.8148 35.5576 40.9746 36.1687C40.1361 36.7787 39.0029 36.7713 38.1539 36.1517C38.0484 36.0747 37.9242 36.036 37.8 36.036C37.6758 36.036 37.5515 36.0747 37.4461 36.1517C36.597 36.7719 35.4644 36.7792 34.6248 36.1687C33.7851 35.5576 33.4406 34.4777 33.7681 33.4813C33.8496 33.2332 33.7611 32.9604 33.549 32.8075C33.1898 32.5482 32.9127 32.1975 32.7439 31.8H34.8C34.8 33.4541 36.1459 34.8 37.8 34.8C39.4541 34.8 40.8 33.4541 40.8 31.8H42.856C42.6873 32.1975 42.4101 32.5482 42.051 32.8075C41.8388 32.9604 41.7504 33.2332 41.8318 33.4813ZM36 31.8H39.6C39.6 32.7925 38.7926 33.6 37.8 33.6C36.8074 33.6 36 32.7925 36 31.8ZM31.4856 31.8C31.6616 32.4547 32.0158 33.052 32.5195 33.5141C32.2371 34.887 32.7703 36.3032 33.9187 37.139C35.0672 37.9743 36.5789 38.0431 37.8 37.3494C38.3549 37.6649 38.9695 37.8225 39.583 37.8225C40.3195 37.8225 41.0549 37.5949 41.6806 37.139C42.8297 36.3032 43.3629 34.887 43.0804 33.5141C43.5842 33.052 43.9383 32.4547 44.1143 31.8H46.967C47.0504 32.6832 47.4601 33.508 48.1195 34.1135C47.8371 35.4867 48.3703 36.9032 49.5199 37.7396C50.148 38.1952 50.881 38.424 51.6176 38.424C51.9204 38.424 52.2231 38.379 52.5202 38.3012C51.9702 39.9666 50.6472 41.2515 48.9874 41.7598C48.986 41.7604 48.9845 41.76 48.9832 41.7606C48.9824 41.7609 48.9819 41.7616 48.9811 41.762C48.4794 41.9149 47.9486 42 47.3982 42H29.8913C29.8863 41.9719 29.8849 41.9429 29.8793 41.915C30.9146 40.9675 31.3154 39.5083 30.8765 38.1606C30.4365 36.8085 29.2552 35.864 27.8625 35.7102C27.2812 34.4326 26.0174 33.6 24.6 33.6C23.8495 33.6 23.127 33.8439 22.5266 34.2733L22.2662 31.8H31.4856ZM23.3353 38.9359C23.6693 38.5987 24.1142 38.4 24.6 38.4C25.5926 38.4 26.4 39.2074 26.4 40.2C26.4 40.6843 26.1994 41.1308 25.8598 41.4662C24.7596 40.9378 23.8667 40.0464 23.3353 38.9359ZM26.9699 43.0854C27.3694 43.1604 27.7811 43.2 28.2017 43.2H28.8V45.6294C27.9003 45.5179 27.0032 45.3885 26.1084 45.2433L26.9699 43.0854ZM55.8 46.2656C55.8 46.662 55.531 47.005 55.1461 47.0997C43.7976 49.8884 31.7877 49.887 20.4463 47.0976C20.0654 47.0042 19.8 46.6614 19.8 46.2644C19.8 46.0019 19.9177 45.7579 20.1234 45.5953C20.2781 45.4728 20.4662 45.4084 20.6595 45.4084C20.7269 45.4084 20.7949 45.416 20.8623 45.4318C23.6754 46.0946 26.5281 46.5875 29.3999 46.9139C37.852 47.8747 46.4716 47.3808 54.7482 45.4294C55.0049 45.37 55.2691 45.4286 55.4754 45.5917C55.6816 45.7549 55.8 45.9993 55.8 46.2618V46.2656Z" fill="#E9DAFA"/>
</svg>
