<svg xmlns="http://www.w3.org/2000/svg" id="Layer_1" x="0" y="0" version="1.1" viewBox="0 0 100 100" xml:space="preserve"><path d="M93.9,45.1c-0.6-0.5-1.2-0.9-1.9-1.2c1.7-1.7,2.3-4.3,1.5-6.7c-2.5-6.9-6.8-13.3-12.1-18.1	c-1.2-1-2.7-1.6-4.3-1.6c-0.8,0-1.6,0.2-2.3,0.4c-0.2-2.2-1.4-4.3-3.6-5.4c-6-3-12.3-4.5-18.9-4.5c-0.8,0-1.7,0-2.6,0.1	c-2.4,0.1-4.4,1.6-5.4,3.5c-0.5-0.4-1-0.8-1.5-1C42,10.2,41,9.9,40,9.9c-0.7,0-1.5,0.1-2.2,0.4c-6.8,2.4-13,6.5-18.1,11.7	c-1.2,1.2-1.9,3-1.8,4.7c0,0.7,0.1,1.3,0.4,2c-2.4,0.1-4.6,1.4-5.7,3.6C9.6,38.4,8,45,8,52v1.1c0,1.7,0.7,3.4,2,4.7	c0.5,0.5,1,0.8,1.6,1.1c-0.5,0.5-0.8,1-1.1,1.6c-0.8,1.6-0.9,3.4-0.3,5c2.4,7,6.4,13.4,11.6,18.3c1.2,1.2,2.8,1.8,4.5,1.8l0.2,0	c0.6,0,1.2-0.1,1.8-0.3c0,0.6,0.1,1.1,0.3,1.7c0.5,1.7,1.6,3,3.2,3.9C37.6,94.2,44.9,96,52,96h0.6c1.7,0,3.4-0.7,4.7-2	c0.4-0.4,0.8-0.9,1-1.4c1.2,1.2,2.8,1.9,4.6,1.9c0.7,0,1.3-0.1,1.9-0.3c6.7-2.1,13.1-5.9,18.5-11.1c1.3-1.2,2-2.9,2-4.7	c0-0.7-0.1-1.3-0.3-1.9c2.4,0,4.5-1.3,5.7-3.4C94.1,67,96,59.5,96,52.2v-2.4C96,48,95.2,46.3,93.9,45.1z" opacity=".35"/><path fill="#f2f2f2" d="M91.9,43.1c-0.6-0.5-1.2-0.9-1.9-1.2c1.7-1.7,2.3-4.3,1.5-6.7c-2.5-6.9-6.8-13.3-12.1-18.1	c-1.2-1-2.7-1.6-4.3-1.6c-0.8,0-1.6,0.2-2.3,0.4c-0.2-2.2-1.4-4.3-3.6-5.4c-6-3-12.3-4.5-18.9-4.5c-0.8,0-1.7,0-2.6,0.1	c-2.4,0.1-4.4,1.6-5.4,3.5c-0.5-0.4-1-0.8-1.5-1C40,8.2,39,7.9,38,7.9c-0.7,0-1.5,0.1-2.2,0.4c-6.8,2.4-13,6.5-18.1,11.7	c-1.2,1.2-1.9,3-1.8,4.7c0,0.7,0.1,1.3,0.4,2c-2.4,0.1-4.6,1.4-5.7,3.6C7.6,36.4,6,43,6,50v1.1c0,1.7,0.7,3.4,2,4.7	c0.5,0.5,1,0.8,1.6,1.1c-0.5,0.5-0.8,1-1.1,1.6c-0.8,1.6-0.9,3.4-0.3,5c2.4,7,6.4,13.4,11.6,18.3c1.2,1.2,2.8,1.8,4.5,1.8l0.2,0	c0.6,0,1.2-0.1,1.8-0.3c0,0.6,0.1,1.1,0.3,1.7c0.5,1.7,1.6,3,3.2,3.9C35.6,92.2,42.9,94,50,94h0.6c1.7,0,3.4-0.7,4.7-2	c0.4-0.4,0.8-0.9,1-1.4c1.2,1.2,2.8,1.9,4.6,1.9c0.7,0,1.3-0.1,1.9-0.3c6.7-2.1,13.1-5.9,18.5-11.1c1.3-1.2,2-2.9,2-4.7	c0-0.7-0.1-1.3-0.3-1.9c2.4,0,4.5-1.3,5.7-3.4C92.1,65,94,57.5,94,50.2v-2.4C94,46,93.2,44.3,91.9,43.1z"/><path fill="#bd7bc8" stroke="#40396e" stroke-linecap="round" stroke-linejoin="round" stroke-miterlimit="10" stroke-width="3" d="M50,87.5c-6,0-12.2-1.5-17.4-4.3l3.6-6.6c4.3,2.2,9,3.4,13.9,3.4h0.4l0.2,7.5H50z M60.9,86l-2.2-7.1 c4.7-1.5,9.2-4.1,12.7-7.7l5.4,5.2C72.3,80.8,66.9,84.1,60.9,86z M24.1,77.2c-4.5-4.3-7.9-9.7-9.9-15.7l7.1-2.2 c1.5,4.7,4.3,9.2,7.9,12.6L24.1,77.2z M83,68l-6.7-3.6C78.7,60.1,80,55.1,80,50c0-0.6,0-1.3,0-1.9l7.5-0.4c0,0.7,0,1.5,0,2.4 C87.5,56.2,86,62.6,83,68z M12.5,51.2c0-0.4,0-0.7,0-1.1c0-6,1.3-11.6,3.9-16.9l6.7,3.4C21.1,40.7,20,45.3,20,50c0,0.4,0,0.6,0,0.9 L12.5,51.2z M78.3,39.9c-1.7-4.7-4.5-9-8.2-12.4l5.1-5.6c4.7,4.1,8.2,9.6,10.3,15.4L78.3,39.9z M27.9,29.6l-5.4-5.1 c4.3-4.5,9.7-8.1,15.5-10.1l2.4,7.1C35.8,23.2,31.5,26.1,27.9,29.6z M63.1,23.1c-4.5-2.2-9.4-3.2-14.6-3l-0.4-7.5 c6.4-0.4,12.6,0.9,18.2,3.7L63.1,23.1z"/><path fill="#bd7bc8" stroke="#40396e" stroke-linecap="round" stroke-linejoin="round" stroke-miterlimit="10" stroke-width="3" d="M57.5,50c0,4.1-3.3,7.5-7.5,7.5s-7.5-3.3-7.5-7.5s3.3-7.5,7.5-7.5S57.5,45.9,57.5,50z"/></svg>